# Blender 3.4.1
# www.blender.org
mtllib rock.mtl
o Icosphere
v 0.000000 -4.800509 0.000000
v 10.735929 0.757868 7.800017
v -4.100677 0.757868 12.620800
v -13.270430 0.757868 0.000000
v -4.100677 0.757868 -12.620800
v 10.735929 0.757868 -7.800017
v 4.100677 9.751562 12.620800
v -2.106336 12.683281 6.422016
v -9.172103 7.962999 -8.540944
v 5.664502 7.962999 -13.361727
v 13.270430 9.751562 0.000000
v 1.563825 13.521378 -0.740927
v 6.655620 10.439744 -10.088963
v 10.977325 11.456011 -2.496800
v 3.983875 12.797890 -2.502290
v 12.448619 8.623739 2.276946
v 10.313936 2.686604 7.804398
v 5.344481 8.950649 10.339473
vn 0.1421 -0.8880 0.4373
vn 0.4598 -0.8880 -0.0000
vn -0.3720 -0.8880 0.2702
vn -0.3720 -0.8880 -0.2702
vn 0.1421 -0.8880 -0.4373
vn 0.9625 -0.2712 -0.0000
vn 0.2974 -0.2712 0.9154
vn -0.7403 0.4034 0.5379
vn -0.7873 -0.2302 -0.5720
vn 0.2745 -0.4590 -0.8450
vn 0.7760 0.1684 0.6079
vn -0.5074 0.4627 0.7269
vn -0.7625 0.6263 0.1625
vn -0.2942 0.3057 -0.9055
vn 0.8395 0.2012 -0.5048
vn 0.2877 0.9346 0.2091
vn 0.2230 0.9484 0.2252
vn -0.4002 0.9111 -0.0984
vn -0.1421 0.8880 -0.4373
vn -0.2571 0.8674 -0.4260
vn 0.1835 0.9552 -0.2323
vn 0.2486 0.9422 0.2245
vn 0.7967 0.3407 -0.4991
vn 0.7176 0.3186 0.6193
vn 0.7959 0.3768 0.4739
vn 0.8887 0.1177 0.4432
vt 0.181819 0.000000
vt 0.363637 0.000000
vt 0.909091 0.000000
vt 0.727273 0.000000
vt 0.545455 0.000000
vt 0.272728 0.157461
vt 1.000000 0.157461
vt 0.090910 0.157461
vt 0.818182 0.157461
vt 0.636364 0.157461
vt 0.454546 0.157461
vt 0.181819 0.314921
vt 0.000000 0.314921
vt 0.909091 0.314921
vt 0.727273 0.314921
vt 0.545455 0.314921
vt 0.363637 0.314921
vt 0.090910 0.472382
vt 0.818182 0.472382
vt 0.636364 0.472382
vt 0.272728 0.472382
vt 0.545455 0.314921
vt 0.363637 0.314921
vt 0.636364 0.472382
vt 0.454546 0.472382
vt 0.272728 0.472382
vt 0.363637 0.314921
vt 0.272728 0.157461
vt 0.181819 0.314921
s 0
f 1/1/1 2/6/1 3/8/1
f 2/6/2 1/2/2 6/11/2
f 1/3/3 3/7/3 4/9/3
f 1/4/4 4/9/4 5/10/4
f 1/5/5 5/10/5 6/11/5
f 2/6/6 6/11/6 11/17/6
f 3/8/7 2/6/7 7/12/7
f 4/9/8 3/7/8 8/14/8
f 5/10/9 4/9/9 9/15/9
f 6/11/10 5/10/10 10/16/10
f 11/17/11 7/12/11 18/29/11 16/27/11
f 3/8/12 7/12/12 8/13/12
f 4/9/13 8/14/13 9/15/13
f 5/10/14 9/15/14 10/16/14
f 6/11/15 10/16/15 11/17/15
f 7/12/16 11/17/16 12/21/16
f 8/13/17 7/12/17 12/18/17
f 9/15/18 8/14/18 12/19/18
f 10/16/19 9/15/19 12/20/19
f 10/16/20 12/20/20 15/24/20 13/22/20
f 14/23/21 13/22/21 15/25/21
f 12/21/22 11/17/22 14/23/22 15/26/22
f 11/17/23 10/16/23 13/22/23 14/23/23
f 17/28/24 16/27/24 18/29/24
f 7/12/25 2/6/25 17/28/25 18/29/25
f 2/6/26 11/17/26 16/27/26 17/28/26
