# Blender 3.4.1
# www.blender.org
mtllib tree.mtl
o Cylinder
v -0.404662 0.199443 -8.677142
v -0.404662 16.796337 -5.602948
v 2.915937 0.199443 -8.016633
v 1.739494 16.796337 -5.176448
v 5.731005 0.199443 -6.135665
v 3.557221 16.796337 -3.961882
v 7.611973 0.199443 -3.320597
v 4.771788 16.796337 -2.144155
v 8.272481 0.199443 0.000001
v 5.198287 16.796337 0.000001
v 7.611973 0.199443 3.320600
v 4.771788 16.796337 2.144157
v 5.731005 0.199443 6.135667
v 3.557221 16.796337 3.961884
v 2.915937 0.199443 8.016635
v 1.739494 16.796337 5.176450
v -0.404662 0.199443 8.677143
v -0.404662 16.796337 5.602950
v -3.725260 0.199443 8.016635
v -2.548817 16.796337 5.176450
v -6.540328 0.199443 6.135667
v -4.366545 16.796337 3.961884
v -8.421296 0.199443 3.320600
v -5.581111 16.796337 2.144157
v -9.081803 0.199443 0.000001
v -6.007610 16.796337 0.000001
v -8.421296 0.199443 -3.320597
v -5.581111 16.796337 -2.144155
v -6.540328 0.199443 -6.135665
v -4.366545 16.796337 -3.961882
v -3.725260 0.199443 -8.016633
v -2.548817 16.796337 -5.176448
v 7.148185 12.568104 -18.234180
v -0.404661 12.568104 -19.736534
v 13.551177 12.568104 -13.955838
v 17.829521 12.568104 -7.552845
v 19.331875 12.568104 0.000001
v 17.829521 12.568104 7.552847
v 13.551177 12.568104 13.955839
v 7.148185 12.568104 18.234186
v -0.404661 12.568104 19.736538
v -7.957508 12.568104 18.234186
v -14.360499 12.568104 13.955839
v -18.638845 12.568104 7.552847
v -20.141197 12.568104 0.000001
v -18.638845 12.568104 -7.552845
v -14.360499 12.568104 -13.955838
v -7.957508 12.568104 -18.234180
v 2.164368 29.434452 -6.202184
v -0.404662 29.434452 -6.713196
v 4.342286 29.434452 -4.746946
v 5.797524 29.434452 -2.569029
v 6.308536 29.434452 0.000001
v 5.797524 29.434452 2.569031
v 4.342286 29.434452 4.746948
v 2.164368 29.434452 6.202186
v -0.404662 29.434452 6.713199
v -2.973691 29.434452 6.202186
v -5.151608 29.434452 4.746948
v -6.606846 29.434452 2.569031
v -7.117858 29.434452 0.000001
v -6.606846 29.434452 -2.569029
v -5.151608 29.434452 -4.746946
v -2.973691 29.434452 -6.202184
v 6.292758 24.386877 -16.168999
v -0.404662 24.386877 -17.501202
v 11.970554 24.386877 -12.375216
v 15.764339 24.386877 -6.697419
v 17.096542 24.386877 0.000001
v 15.764339 24.386877 6.697421
v 11.970554 24.386877 12.375217
v 6.292758 24.386877 16.169003
v -0.404662 24.386877 17.501204
v -7.102082 24.386877 16.169003
v -12.779879 24.386877 12.375217
v -16.573662 24.386877 6.697421
v -17.905863 24.386877 0.000001
v -16.573662 24.386877 -6.697419
v -12.779879 24.386877 -12.375216
v -7.102082 24.386877 -16.168999
v 2.196717 38.063969 -6.280283
v -0.404662 38.063969 -6.797730
v 4.402060 38.063969 -4.806720
v 5.875623 38.063969 -2.601378
v 6.393069 38.063969 0.000001
v 5.875623 38.063969 2.601380
v 4.402060 38.063969 4.806722
v 2.196717 38.063969 6.280285
v -0.404662 38.063969 6.797732
v -3.006041 38.063969 6.280285
v -5.211383 38.063969 4.806722
v -6.684947 38.063969 2.601380
v -7.202393 38.063969 0.000001
v -6.684947 38.063969 -2.601378
v -5.211383 38.063969 -4.806720
v -3.006041 38.063969 -6.280283
v 4.516247 35.028980 -11.880124
v -0.404662 35.028980 -12.858954
v 8.687991 35.028980 -9.092651
v 11.475464 35.028980 -4.920908
v 12.454294 35.028980 0.000001
v 11.475464 35.028980 4.920910
v 8.687991 35.028980 9.092654
v 4.516247 35.028980 11.880125
v -0.404662 35.028980 12.858957
v -5.325571 35.028980 11.880125
v -9.497314 35.028980 9.092654
v -12.284786 35.028980 4.920910
v -13.263618 35.028980 0.000001
v -12.284786 35.028980 -4.920908
v -9.497314 35.028980 -9.092651
v -5.325571 35.028980 -11.880124
v 0.055615 49.519421 -1.111206
v -0.404662 49.519421 -1.202760
v 0.445819 49.519421 -0.850480
v 0.706544 49.519421 -0.460276
v 0.798100 49.519421 0.000001
v 0.706544 49.519421 0.460278
v 0.445819 49.519421 0.850482
v 0.055615 49.519421 1.111208
v -0.404662 49.519421 1.202762
v -0.864939 49.519421 1.111208
v -1.255142 49.519421 0.850482
v -1.515868 49.519421 0.460278
v -1.607423 49.519421 0.000001
v -1.515868 49.519421 -0.460276
v -1.255142 49.519421 -0.850480
v -0.864939 49.519421 -1.111206
v 8.870288 18.904305 -9.274949
v 11.713645 18.904305 -5.019567
v -9.679610 18.904305 9.274950
v -12.522967 18.904305 5.019568
v 12.712097 18.904305 0.000001
v -13.521420 18.904305 0.000001
v 11.713645 18.904305 5.019568
v -12.522967 18.904305 -5.019567
v 8.870288 18.904305 9.274950
v -9.679610 18.904305 -9.274949
v 4.614906 18.904305 12.118306
v -5.424229 18.904305 -12.118305
v -0.404661 18.904305 13.116760
v -0.404661 18.904305 -13.116757
v 4.614906 18.904305 -12.118305
v -5.424229 18.904305 12.118306
v -11.144297 30.086727 0.000001
v -10.326791 30.086727 -4.109879
v 9.517467 30.086727 4.109882
v 7.189407 30.086727 7.594069
v -7.998730 30.086727 -7.594068
v 3.705219 30.086727 9.922130
v -4.514543 30.086727 -9.922128
v -0.404662 30.086727 10.739636
v -0.404662 30.086727 -10.739635
v 3.705219 30.086727 -9.922128
v -4.514543 30.086727 9.922130
v 7.189407 30.086727 -7.594068
v -7.998730 30.086727 7.594069
v 9.517467 30.086727 -4.109879
v -10.326791 30.086727 4.109882
v 10.334974 30.086727 0.000001
v 1.719662 40.156803 5.128572
v -0.404662 40.156803 5.551126
v -0.404662 40.156803 -5.551125
v 1.719662 40.156803 -5.128570
v -2.528985 40.156803 -5.128570
v -2.528985 40.156803 5.128572
v 3.520576 40.156803 -3.925237
v -4.329900 40.156803 3.925239
v 4.723908 40.156803 -2.124322
v -5.533232 40.156803 2.124325
v 5.146463 40.156803 0.000001
v -5.955788 40.156803 0.000001
v 4.723908 40.156803 2.124325
v -5.533232 40.156803 -2.124322
v 3.520576 40.156803 3.925239
v -4.329900 40.156803 -3.925237
vn 0.1919 0.1787 -0.9650
vn 0.5466 0.1787 -0.8181
vn 0.8181 0.1787 -0.5466
vn 0.9650 0.1787 -0.1919
vn 0.9650 0.1787 0.1919
vn 0.8181 0.1787 0.5466
vn 0.5466 0.1787 0.8181
vn 0.1919 0.1787 0.9650
vn -0.1919 0.1787 0.9650
vn -0.5466 0.1787 0.8181
vn -0.8181 0.1787 0.5466
vn -0.9650 0.1787 0.1919
vn -0.9650 0.1787 -0.1919
vn -0.8181 0.1787 -0.5466
vn 0.2861 -0.9565 -0.0569
vn -0.5466 0.1787 -0.8181
vn -0.1919 0.1787 -0.9650
vn -0.0000 -1.0000 -0.0000
vn 0.7141 0.5122 -0.4771
vn -0.2861 -0.9565 -0.0569
vn 0.1621 -0.9565 -0.2426
vn 0.1621 -0.9565 0.2426
vn -0.2426 -0.9565 0.1621
vn -0.0569 -0.9565 -0.2861
vn -0.0569 -0.9565 0.2861
vn 0.2861 -0.9565 0.0569
vn -0.2426 -0.9565 -0.1621
vn 0.2426 -0.9565 -0.1621
vn 0.0569 -0.9565 0.2861
vn -0.2861 -0.9565 0.0569
vn 0.0569 -0.9565 -0.2861
vn 0.2426 -0.9565 0.1621
vn -0.1621 -0.9565 0.2426
vn -0.1621 -0.9565 -0.2426
vn -0.0840 -0.9026 -0.4223
vn -0.7141 0.5122 0.4771
vn 0.8423 0.5122 -0.1676
vn -0.8423 0.5122 0.1676
vn 0.8423 0.5122 0.1676
vn -0.8423 0.5122 -0.1676
vn 0.7141 0.5122 0.4771
vn -0.7141 0.5122 -0.4771
vn 0.4771 0.5122 0.7141
vn -0.4771 0.5122 -0.7141
vn 0.1676 0.5122 0.8423
vn 0.1676 0.5122 -0.8423
vn -0.1676 0.5122 -0.8423
vn -0.1676 0.5122 0.8423
vn 0.4771 0.5122 -0.7141
vn -0.4771 0.5122 0.7141
vn -0.8826 0.4361 -0.1756
vn -0.0840 -0.9026 0.4223
vn 0.0840 -0.9026 0.4223
vn 0.0840 -0.9026 -0.4223
vn -0.2392 -0.9026 0.3580
vn 0.2392 -0.9026 -0.3580
vn -0.3580 -0.9026 0.2392
vn 0.3580 -0.9026 -0.2392
vn -0.4223 -0.9026 0.0840
vn 0.4223 -0.9026 -0.0840
vn -0.4223 -0.9026 -0.0840
vn 0.4223 -0.9026 0.0840
vn -0.3580 -0.9026 -0.2392
vn 0.3580 -0.9026 0.2392
vn -0.2392 -0.9026 -0.3580
vn 0.2392 -0.9026 0.3580
vn -0.3781 -0.8906 0.2526
vn 0.7482 0.4361 0.4999
vn -0.7482 0.4361 -0.4999
vn 0.4999 0.4361 0.7482
vn -0.4999 0.4361 -0.7482
vn 0.1756 0.4361 0.8826
vn 0.1756 0.4361 -0.8826
vn -0.1756 0.4361 -0.8826
vn -0.1756 0.4361 0.8826
vn 0.4999 0.4361 -0.7482
vn -0.4999 0.4361 0.7482
vn 0.7482 0.4361 -0.4999
vn -0.7482 0.4361 0.4999
vn 0.8826 0.4361 -0.1756
vn -0.8826 0.4361 0.1756
vn 0.8826 0.4361 0.1756
vn 0.1775 0.4145 0.8925
vn 0.3781 -0.8906 -0.2526
vn -0.4460 -0.8906 0.0887
vn 0.4460 -0.8906 -0.0887
vn -0.4460 -0.8906 -0.0887
vn 0.4460 -0.8906 0.0887
vn -0.3781 -0.8906 -0.2526
vn 0.3781 -0.8906 0.2526
vn -0.2526 -0.8906 -0.3781
vn 0.2526 -0.8906 0.3781
vn -0.0887 -0.8906 -0.4460
vn -0.0887 -0.8906 0.4460
vn 0.0887 -0.8906 0.4460
vn 0.0887 -0.8906 -0.4460
vn -0.2526 -0.8906 0.3781
vn 0.2526 -0.8906 -0.3781
vn -0.0000 1.0000 -0.0000
vn 0.1775 0.4145 -0.8925
vn -0.1775 0.4145 -0.8925
vn -0.1775 0.4145 0.8925
vn 0.5056 0.4145 -0.7567
vn -0.5056 0.4145 0.7567
vn 0.7567 0.4145 -0.5056
vn -0.7567 0.4145 0.5056
vn 0.8925 0.4145 -0.1775
vn -0.8925 0.4145 0.1775
vn 0.8925 0.4145 0.1775
vn -0.8925 0.4145 -0.1775
vn 0.7567 0.4145 0.5056
vn -0.7567 0.4145 -0.5056
vn 0.5056 0.4145 0.7567
vn -0.5056 0.4145 -0.7567
vn -0.3880 0.7157 0.5807
vn 0.3880 0.7157 -0.5807
vn -0.1363 0.7157 0.6850
vn -0.1363 0.7157 -0.6850
vn 0.1363 0.7157 -0.6850
vn 0.1363 0.7157 0.6850
vn -0.3880 0.7157 -0.5807
vn 0.3880 0.7157 0.5807
vn -0.5807 0.7157 -0.3880
vn 0.5807 0.7157 0.3880
vn -0.6850 0.7157 -0.1363
vn 0.6850 0.7157 0.1363
vn -0.6850 0.7157 0.1363
vn 0.6850 0.7157 -0.1363
vn -0.5807 0.7157 0.3880
vn 0.5807 0.7157 -0.3880
vn 0.6393 0.7584 0.1272
vn -0.6393 0.7584 0.1272
vn 0.6393 0.7584 -0.1272
vn -0.5420 0.7584 0.3621
vn 0.5420 0.7584 -0.3621
vn -0.3621 0.7584 0.5420
vn 0.3621 0.7584 -0.5420
vn -0.1272 0.7584 0.6393
vn -0.1272 0.7584 -0.6393
vn 0.1272 0.7584 -0.6393
vn 0.1272 0.7584 0.6393
vn -0.3621 0.7584 -0.5420
vn 0.3621 0.7584 0.5420
vn -0.5420 0.7584 -0.3621
vn 0.5420 0.7584 0.3621
vn -0.6393 0.7584 -0.1272
vn -0.3233 0.8133 -0.4838
vn 0.3233 0.8133 0.4838
vn -0.4838 0.8133 -0.3233
vn 0.4838 0.8133 0.3233
vn -0.5707 0.8133 -0.1135
vn 0.5707 0.8133 0.1135
vn -0.5707 0.8133 0.1135
vn 0.5707 0.8133 -0.1135
vn -0.4838 0.8133 0.3233
vn 0.4838 0.8133 -0.3233
vn -0.3233 0.8133 0.4838
vn 0.3233 0.8133 -0.4838
vn -0.1135 0.8133 0.5707
vn -0.1135 0.8133 -0.5707
vn 0.1135 0.8133 -0.5707
vn 0.1135 0.8133 0.5707
vt 1.000000 0.500000
vt 0.000000 0.500000
vt 0.750000 0.490000
vt 1.000000 1.000000
vt 0.000000 1.000000
vt 0.937500 0.500000
vt 0.841844 0.471731
vt 0.937500 1.000000
vt 0.875000 0.500000
vt 0.919706 0.419706
vt 0.875000 1.000000
vt 0.812500 0.500000
vt 0.971731 0.341844
vt 0.812500 1.000000
vt 0.750000 0.500000
vt 0.990000 0.250000
vt 0.750000 1.000000
vt 0.687500 0.500000
vt 0.971731 0.158156
vt 0.687500 1.000000
vt 0.625000 0.500000
vt 0.919706 0.080294
vt 0.625000 1.000000
vt 0.562500 0.500000
vt 0.841844 0.028269
vt 0.562500 1.000000
vt 0.500000 0.500000
vt 0.750000 0.010000
vt 0.500000 1.000000
vt 0.437500 0.500000
vt 0.658156 0.028269
vt 0.437500 1.000000
vt 0.375000 0.500000
vt 0.580294 0.080294
vt 0.375000 1.000000
vt 0.312500 0.500000
vt 0.528269 0.158156
vt 0.312500 1.000000
vt 0.250000 0.500000
vt 0.510000 0.250000
vt 0.250000 1.000000
vt 0.187500 0.500000
vt 0.528269 0.341844
vt 0.187500 1.000000
vt 0.125000 0.500000
vt 0.580294 0.419706
vt 0.125000 1.000000
vt 0.062500 0.500000
vt 0.658156 0.471731
vt 0.062500 1.000000
vt 0.937500 1.000000
vt 0.000000 1.000000
vt 1.000000 1.000000
vt 0.875000 1.000000
vt 0.812500 1.000000
vt 0.750000 1.000000
vt 0.687500 1.000000
vt 0.625000 1.000000
vt 0.562500 1.000000
vt 0.500000 1.000000
vt 0.437500 1.000000
vt 0.375000 1.000000
vt 0.312500 1.000000
vt 0.250000 1.000000
vt 0.187500 1.000000
vt 0.125000 1.000000
vt 0.062500 1.000000
vt 0.937500 1.000000
vt 1.000000 1.000000
vt 0.000000 1.000000
vt 0.875000 1.000000
vt 0.812500 1.000000
vt 0.750000 1.000000
vt 0.687500 1.000000
vt 0.625000 1.000000
vt 0.562500 1.000000
vt 0.500000 1.000000
vt 0.437500 1.000000
vt 0.375000 1.000000
vt 0.312500 1.000000
vt 0.250000 1.000000
vt 0.187500 1.000000
vt 0.125000 1.000000
vt 0.062500 1.000000
vt 0.937500 1.000000
vt 0.000000 1.000000
vt 1.000000 1.000000
vt 0.875000 1.000000
vt 0.812500 1.000000
vt 0.750000 1.000000
vt 0.687500 1.000000
vt 0.625000 1.000000
vt 0.562500 1.000000
vt 0.500000 1.000000
vt 0.437500 1.000000
vt 0.375000 1.000000
vt 0.312500 1.000000
vt 0.250000 1.000000
vt 0.187500 1.000000
vt 0.125000 1.000000
vt 0.062500 1.000000
vt 0.937500 1.000000
vt 1.000000 1.000000
vt 0.000000 1.000000
vt 0.875000 1.000000
vt 0.812500 1.000000
vt 0.750000 1.000000
vt 0.687500 1.000000
vt 0.625000 1.000000
vt 0.562500 1.000000
vt 0.500000 1.000000
vt 0.437500 1.000000
vt 0.375000 1.000000
vt 0.312500 1.000000
vt 0.250000 1.000000
vt 0.187500 1.000000
vt 0.125000 1.000000
vt 0.062500 1.000000
vt 0.937500 1.000000
vt 0.000000 1.000000
vt 1.000000 1.000000
vt 0.875000 1.000000
vt 0.812500 1.000000
vt 0.750000 1.000000
vt 0.687500 1.000000
vt 0.625000 1.000000
vt 0.562500 1.000000
vt 0.500000 1.000000
vt 0.437500 1.000000
vt 0.375000 1.000000
vt 0.312500 1.000000
vt 0.250000 1.000000
vt 0.187500 1.000000
vt 0.125000 1.000000
vt 0.062500 1.000000
vt 0.341844 0.471731
vt 0.937500 1.000000
vt 0.250000 0.490000
vt 1.000000 1.000000
vt 0.000000 1.000000
vt 0.419706 0.419706
vt 0.875000 1.000000
vt 0.471731 0.341844
vt 0.812500 1.000000
vt 0.490000 0.250000
vt 0.750000 1.000000
vt 0.471731 0.158156
vt 0.687500 1.000000
vt 0.419706 0.080294
vt 0.625000 1.000000
vt 0.341844 0.028269
vt 0.562500 1.000000
vt 0.250000 0.010000
vt 0.500000 1.000000
vt 0.158156 0.028269
vt 0.437500 1.000000
vt 0.080294 0.080294
vt 0.375000 1.000000
vt 0.028269 0.158156
vt 0.312500 1.000000
vt 0.010000 0.250000
vt 0.250000 1.000000
vt 0.028269 0.341844
vt 0.187500 1.000000
vt 0.080294 0.419706
vt 0.125000 1.000000
vt 0.158156 0.471731
vt 0.062500 1.000000
vt 0.875000 1.000000
vt 0.812500 1.000000
vt 0.375000 1.000000
vt 0.312500 1.000000
vt 0.750000 1.000000
vt 0.250000 1.000000
vt 0.687500 1.000000
vt 0.187500 1.000000
vt 0.625000 1.000000
vt 0.125000 1.000000
vt 0.562500 1.000000
vt 0.062500 1.000000
vt 0.500000 1.000000
vt 0.000000 1.000000
vt 1.000000 1.000000
vt 0.937500 1.000000
vt 0.437500 1.000000
vt 0.250000 1.000000
vt 0.187500 1.000000
vt 0.687500 1.000000
vt 0.625000 1.000000
vt 0.125000 1.000000
vt 0.562500 1.000000
vt 0.062500 1.000000
vt 0.500000 1.000000
vt 0.000000 1.000000
vt 1.000000 1.000000
vt 0.937500 1.000000
vt 0.437500 1.000000
vt 0.875000 1.000000
vt 0.375000 1.000000
vt 0.812500 1.000000
vt 0.312500 1.000000
vt 0.750000 1.000000
vt 0.562500 1.000000
vt 0.500000 1.000000
vt 0.000000 1.000000
vt 1.000000 1.000000
vt 0.937500 1.000000
vt 0.062500 1.000000
vt 0.437500 1.000000
vt 0.875000 1.000000
vt 0.375000 1.000000
vt 0.812500 1.000000
vt 0.312500 1.000000
vt 0.750000 1.000000
vt 0.250000 1.000000
vt 0.687500 1.000000
vt 0.187500 1.000000
vt 0.625000 1.000000
vt 0.125000 1.000000
s 0
f 1/1/1 2/4/1 4/8/1 3/6/1
f 3/6/2 4/8/2 6/11/2 5/9/2
f 5/9/3 6/11/3 8/14/3 7/12/3
f 7/12/4 8/14/4 10/17/4 9/15/4
f 9/15/5 10/17/5 12/20/5 11/18/5
f 11/18/6 12/20/6 14/23/6 13/21/6
f 13/21/7 14/23/7 16/26/7 15/24/7
f 15/24/8 16/26/8 18/29/8 17/27/8
f 17/27/9 18/29/9 20/32/9 19/30/9
f 19/30/10 20/32/10 22/35/10 21/33/10
f 21/33/11 22/35/11 24/38/11 23/36/11
f 23/36/12 24/38/12 26/41/12 25/39/12
f 25/39/13 26/41/13 28/44/13 27/42/13
f 27/42/14 28/44/14 30/47/14 29/45/14
f 26/41/15 24/38/15 44/63/15 45/64/15
f 29/45/16 30/47/16 32/50/16 31/48/16
f 31/48/17 32/50/17 2/5/17 1/2/17
f 1/3/18 3/7/18 5/10/18 7/13/18 9/16/18 11/19/18 13/22/18 15/25/18 17/28/18 19/31/18 21/34/18 23/37/18 25/40/18 27/43/18 29/46/18 31/49/18
f 130/170/19 129/169/19 51/71/19 52/72/19
f 12/20/20 10/17/20 37/56/20 38/57/20
f 22/35/21 20/32/21 42/61/21 43/62/21
f 32/50/22 30/47/22 47/66/22 48/67/22
f 8/14/23 6/11/23 35/54/23 36/55/23
f 18/29/24 16/26/24 40/59/24 41/60/24
f 4/8/25 2/4/25 34/53/25 33/51/25
f 28/44/26 26/41/26 45/64/26 46/65/26
f 14/23/27 12/20/27 38/57/27 39/58/27
f 24/38/28 22/35/28 43/62/28 44/63/28
f 2/5/29 32/50/29 48/67/29 34/52/29
f 10/17/30 8/14/30 36/55/30 37/56/30
f 20/32/31 18/29/31 41/60/31 42/61/31
f 30/47/32 28/44/32 46/65/32 47/66/32
f 6/11/33 4/8/33 33/51/33 35/54/33
f 16/26/34 14/23/34 39/58/34 40/59/34
f 57/77/35 56/76/35 72/93/35 73/94/35
f 132/172/36 131/171/36 59/79/36 60/80/36
f 133/173/37 130/170/37 52/72/37 53/73/37
f 134/174/38 132/172/38 60/80/38 61/81/38
f 135/175/39 133/173/39 53/73/39 54/74/39
f 136/176/40 134/174/40 61/81/40 62/82/40
f 137/177/41 135/175/41 54/74/41 55/75/41
f 138/178/42 136/176/42 62/82/42 63/83/42
f 139/179/43 137/177/43 55/75/43 56/76/43
f 140/180/44 138/178/44 63/83/44 64/84/44
f 141/181/45 139/179/45 56/76/45 57/77/45
f 143/184/46 142/183/46 50/69/46 49/68/46
f 142/182/47 140/180/47 64/84/47 50/70/47
f 144/185/48 141/181/48 57/77/48 58/78/48
f 129/169/49 143/184/49 49/68/49 51/71/49
f 131/171/50 144/185/50 58/78/50 59/79/50
f 146/187/51 145/186/51 93/115/51 94/116/51
f 49/68/52 50/69/52 66/87/52 65/85/52
f 50/70/53 64/84/53 80/101/53 66/86/53
f 58/78/54 57/77/54 73/94/54 74/95/54
f 51/71/55 49/68/55 65/85/55 67/88/55
f 59/79/56 58/78/56 74/95/56 75/96/56
f 52/72/57 51/71/57 67/88/57 68/89/57
f 60/80/58 59/79/58 75/96/58 76/97/58
f 53/73/59 52/72/59 68/89/59 69/90/59
f 61/81/60 60/80/60 76/97/60 77/98/60
f 54/74/61 53/73/61 69/90/61 70/91/61
f 62/82/62 61/81/62 77/98/62 78/99/62
f 55/75/63 54/74/63 70/91/63 71/92/63
f 63/83/64 62/82/64 78/99/64 79/100/64
f 56/76/65 55/75/65 71/92/65 72/93/65
f 64/84/66 63/83/66 79/100/66 80/101/66
f 84/106/67 83/105/67 99/122/67 100/123/67
f 148/189/68 147/188/68 86/108/68 87/109/68
f 149/190/69 146/187/69 94/116/69 95/117/69
f 150/191/70 148/189/70 87/109/70 88/110/70
f 151/192/71 149/190/71 95/117/71 96/118/71
f 152/193/72 150/191/72 88/110/72 89/111/72
f 154/196/73 153/195/73 82/103/73 81/102/73
f 153/194/74 151/192/74 96/118/74 82/104/74
f 155/197/75 152/193/75 89/111/75 90/112/75
f 156/198/76 154/196/76 81/102/76 83/105/76
f 157/199/77 155/197/77 90/112/77 91/113/77
f 158/200/78 156/198/78 83/105/78 84/106/78
f 159/201/79 157/199/79 91/113/79 92/114/79
f 160/202/80 158/200/80 84/106/80 85/107/80
f 145/186/81 159/201/81 92/114/81 93/115/81
f 147/188/82 160/202/82 85/107/82 86/108/82
f 162/204/83 161/203/83 120/152/83 121/154/83
f 92/114/84 91/113/84 107/130/84 108/131/84
f 85/107/85 84/106/85 100/123/85 101/124/85
f 93/115/86 92/114/86 108/131/86 109/132/86
f 86/108/87 85/107/87 101/124/87 102/125/87
f 94/116/88 93/115/88 109/132/88 110/133/88
f 87/109/89 86/108/89 102/125/89 103/126/89
f 95/117/90 94/116/90 110/133/90 111/134/90
f 88/110/91 87/109/91 103/126/91 104/127/91
f 96/118/92 95/117/92 111/134/92 112/135/92
f 89/111/93 88/110/93 104/127/93 105/128/93
f 81/102/94 82/103/94 98/121/94 97/119/94
f 82/104/95 96/118/95 112/135/95 98/120/95
f 90/112/96 89/111/96 105/128/96 106/129/96
f 83/105/97 81/102/97 97/119/97 99/122/97
f 91/113/98 90/112/98 106/129/98 107/130/98
f 113/136/99 114/138/99 128/167/99 127/165/99 126/163/99 125/161/99 124/159/99 123/157/99 122/155/99 121/153/99 120/151/99 119/149/99 118/147/99 117/145/99 116/143/99 115/141/99
f 164/207/100 163/206/100 114/139/100 113/137/100
f 163/205/101 165/208/101 128/168/101 114/140/101
f 166/209/102 162/204/102 121/154/102 122/156/102
f 167/210/103 164/207/103 113/137/103 115/142/103
f 168/211/104 166/209/104 122/156/104 123/158/104
f 169/212/105 167/210/105 115/142/105 116/144/105
f 170/213/106 168/211/106 123/158/106 124/160/106
f 171/214/107 169/212/107 116/144/107 117/146/107
f 172/215/108 170/213/108 124/160/108 125/162/108
f 173/216/109 171/214/109 117/146/109 118/148/109
f 174/217/110 172/215/110 125/162/110 126/164/110
f 175/218/111 173/216/111 118/148/111 119/150/111
f 176/219/112 174/217/112 126/164/112 127/166/112
f 161/203/113 175/218/113 119/150/113 120/152/113
f 165/208/114 176/219/114 127/166/114 128/168/114
f 43/62/115 42/61/115 144/185/115 131/171/115
f 35/54/116 33/51/116 143/184/116 129/169/116
f 42/61/117 41/60/117 141/181/117 144/185/117
f 34/52/118 48/67/118 140/180/118 142/182/118
f 33/51/119 34/53/119 142/183/119 143/184/119
f 41/60/120 40/59/120 139/179/120 141/181/120
f 48/67/121 47/66/121 138/178/121 140/180/121
f 40/59/122 39/58/122 137/177/122 139/179/122
f 47/66/123 46/65/123 136/176/123 138/178/123
f 39/58/124 38/57/124 135/175/124 137/177/124
f 46/65/125 45/64/125 134/174/125 136/176/125
f 38/57/126 37/56/126 133/173/126 135/175/126
f 45/64/127 44/63/127 132/172/127 134/174/127
f 37/56/128 36/55/128 130/170/128 133/173/128
f 44/63/129 43/62/129 131/171/129 132/172/129
f 36/55/130 35/54/130 129/169/130 130/170/130
f 70/91/131 69/90/131 160/202/131 147/188/131
f 77/98/132 76/97/132 159/201/132 145/186/132
f 69/90/133 68/89/133 158/200/133 160/202/133
f 76/97/134 75/96/134 157/199/134 159/201/134
f 68/89/135 67/88/135 156/198/135 158/200/135
f 75/96/136 74/95/136 155/197/136 157/199/136
f 67/88/137 65/85/137 154/196/137 156/198/137
f 74/95/138 73/94/138 152/193/138 155/197/138
f 66/86/139 80/101/139 151/192/139 153/194/139
f 65/85/140 66/87/140 153/195/140 154/196/140
f 73/94/141 72/93/141 150/191/141 152/193/141
f 80/101/142 79/100/142 149/190/142 151/192/142
f 72/93/143 71/92/143 148/189/143 150/191/143
f 79/100/144 78/99/144 146/187/144 149/190/144
f 71/92/145 70/91/145 147/188/145 148/189/145
f 78/99/146 77/98/146 145/186/146 146/187/146
f 112/135/147 111/134/147 176/219/147 165/208/147
f 104/127/148 103/126/148 175/218/148 161/203/148
f 111/134/149 110/133/149 174/217/149 176/219/149
f 103/126/150 102/125/150 173/216/150 175/218/150
f 110/133/151 109/132/151 172/215/151 174/217/151
f 102/125/152 101/124/152 171/214/152 173/216/152
f 109/132/153 108/131/153 170/213/153 172/215/153
f 101/124/154 100/123/154 169/212/154 171/214/154
f 108/131/155 107/130/155 168/211/155 170/213/155
f 100/123/156 99/122/156 167/210/156 169/212/156
f 107/130/157 106/129/157 166/209/157 168/211/157
f 99/122/158 97/119/158 164/207/158 167/210/158
f 106/129/159 105/128/159 162/204/159 166/209/159
f 98/120/160 112/135/160 165/208/160 163/205/160
f 97/119/161 98/121/161 163/206/161 164/207/161
f 105/128/162 104/127/162 161/203/162 162/204/162
