# Blender 3.4.1
# www.blender.org
mtllib barn.mtl
o Cube
v 0.557948 0.458797 -0.175323
v 0.557948 0.005183 -0.175323
v 0.557948 0.458797 0.175323
v 0.557948 0.005183 0.175323
v -0.557948 0.696641 -0.346156
v -0.557948 0.004330 -0.346156
v -0.557948 0.696641 0.346156
v -0.557948 0.004330 0.346156
v 0.557948 0.895313 0.230175
v -0.557948 0.895313 0.230175
v 0.557948 0.895313 -0.230175
v -0.557948 0.895313 -0.230175
v 0.557948 0.978394 0.000000
v -0.557948 0.978394 0.000000
v 0.557948 0.668687 0.379867
v -0.557948 0.668687 0.379867
v -0.557948 0.668687 -0.379867
v 0.557948 0.668687 -0.379867
v 0.557948 0.908250 0.252591
v -0.557948 0.908250 0.252591
v 0.557948 1.008430 0.000000
v -0.557948 1.008430 0.000000
v -0.557948 0.908250 -0.252591
v 0.557948 0.908250 -0.252591
v 0.627512 0.978394 0.000000
v 0.627512 0.895313 0.230175
v 0.627512 0.895313 -0.230175
v 0.627512 0.696641 -0.346156
v 0.627512 0.696641 0.346156
v 0.627512 1.008430 0.000000
v 0.627512 0.908250 0.252591
v 0.627512 0.908250 -0.252591
v 0.627512 0.668687 -0.379867
v 0.627512 0.668687 0.379867
v 0.000000 0.696641 0.346156
v 0.000000 0.004330 0.346156
v 0.000000 0.004330 -0.346156
v 0.000000 0.696641 -0.346156
v -0.192651 0.182408 0.346156
v -0.192651 0.377499 0.346156
v -0.365297 0.377499 0.346156
v -0.365297 0.182408 0.346156
v 0.192651 0.182408 -0.346156
v 0.192651 0.377499 -0.346156
v 0.365297 0.377499 -0.346156
v 0.365297 0.182408 -0.346156
v 0.365297 0.182408 0.346156
v 0.365297 0.377499 0.346156
v 0.192651 0.377499 0.346156
v 0.192651 0.182408 0.346156
v -0.365297 0.182408 -0.346156
v -0.365297 0.377499 -0.346156
v -0.192651 0.377499 -0.346156
v -0.192651 0.182408 -0.346156
v -0.192651 0.379333 0.247297
v -0.192651 0.184241 0.247297
v -0.365297 0.184241 0.247297
v -0.365297 0.379333 0.247297
v 0.192651 0.379333 -0.247297
v 0.192651 0.184241 -0.247297
v 0.365297 0.184241 -0.247297
v 0.365297 0.379333 -0.247297
v 0.365297 0.379333 0.247297
v 0.365297 0.184241 0.247297
v 0.192651 0.184241 0.247297
v 0.192651 0.379333 0.247297
v -0.365297 0.379333 -0.247297
v -0.365297 0.184241 -0.247297
v -0.192651 0.184241 -0.247297
v -0.192651 0.379333 -0.247297
v 0.557948 0.696641 -0.346156
v 0.557948 0.004330 -0.346156
v 0.557948 0.696641 0.346156
v 0.557948 0.004330 0.346156
v 0.500123 0.458797 -0.175323
v 0.500123 0.005183 -0.175323
v 0.500123 0.458797 0.175323
v 0.500123 0.005183 0.175323
vn -0.0000 -0.7698 -0.6383
vn -0.0000 0.9998 0.0185
vn -1.0000 -0.0000 -0.0000
vn -0.0000 -1.0000 -0.0000
vn -0.0000 -0.9998 -0.0185
vn 1.0000 -0.0000 -0.0000
vn -0.0000 0.4692 -0.8831
vn -0.0000 0.9296 0.3687
vn -0.0000 0.4692 0.8831
vn -0.0000 0.9296 -0.3687
vn -0.0000 -0.9406 0.3395
vn -0.0000 -0.7698 0.6383
vn -0.0000 -0.9406 -0.3395
vn -0.0000 -0.5042 0.8636
vn -0.0000 -0.5042 -0.8636
vn -0.0000 0.9998 -0.0185
vn -0.0000 -0.0000 1.0000
vn -0.0000 -0.0000 -1.0000
vn -0.0000 -0.9998 0.0185
vn -0.0000 1.0000 -0.0000
vt 0.563311 0.561689
vt 0.436689 0.561689
vt 0.563311 0.688311
vt 0.436689 0.688311
vt 0.625000 0.250000
vt 0.125000 0.500000
vt 0.375000 0.250000
vt 0.625000 0.000000
vt 0.625000 1.000000
vt 0.375000 0.000000
vt 0.125000 0.750000
vt 0.375000 1.000000
vt 0.625000 0.750000
vt 0.625000 0.000000
vt 0.625000 0.500000
vt 0.625000 0.250000
vt 0.625000 0.625000
vt 0.625000 0.125000
vt 0.625000 0.750000
vt 0.625000 0.000000
vt 0.625000 1.000000
vt 0.625000 0.250000
vt 0.625000 0.500000
vt 0.625000 0.750000
vt 0.875000 0.750000
vt 0.625000 1.000000
vt 0.625000 0.000000
vt 0.625000 0.625000
vt 0.875000 0.625000
vt 0.625000 0.125000
vt 0.875000 0.500000
vt 0.625000 0.250000
vt 0.625000 0.500000
vt 0.625000 0.625000
vt 0.625000 0.750000
vt 0.625000 0.500000
vt 0.625000 0.500000
vt 0.625000 0.750000
vt 0.625000 0.625000
vt 0.625000 0.750000
vt 0.625000 0.500000
vt 0.625000 0.500000
vt 0.625000 0.750000
vt 0.625000 0.875000
vt 0.250000 0.750000
vt 0.375000 0.875000
vt 0.250000 0.500000
vt 0.375000 0.375000
vt 0.625000 0.375000
vt 0.418161 0.918161
vt 0.581840 0.918161
vt 0.581840 0.956840
vt 0.418161 0.956839
vt 0.418161 0.418161
vt 0.581840 0.418161
vt 0.581840 0.456839
vt 0.418161 0.456839
vt 0.418161 0.793161
vt 0.581840 0.793161
vt 0.581840 0.831840
vt 0.418161 0.831839
vt 0.418161 0.293161
vt 0.581840 0.293161
vt 0.581840 0.331840
vt 0.418161 0.331839
vt 0.581840 0.918161
vt 0.418161 0.918161
vt 0.418161 0.956839
vt 0.581840 0.956840
vt 0.581840 0.418161
vt 0.418161 0.418161
vt 0.418161 0.456839
vt 0.581840 0.456839
vt 0.581840 0.793161
vt 0.418161 0.793161
vt 0.418161 0.831839
vt 0.581840 0.831840
vt 0.581840 0.293161
vt 0.418161 0.293161
vt 0.418161 0.331839
vt 0.581840 0.331840
vt 0.625000 0.500000
vt 0.375000 0.500000
vt 0.625000 0.750000
vt 0.375000 0.750000
vt 0.563311 0.561689
vt 0.436689 0.561689
vt 0.563311 0.688311
vt 0.436689 0.688311
s 0
usemtl Material
f 15/19/1 73/84/1 29/38/1 34/43/1
f 50/61/2 47/58/2 64/75/2 65/76/2
f 8/10/3 7/8/3 5/5/3 6/7/3
f 6/6/4 37/47/4 72/83/4 74/85/4 36/45/4 8/11/4
f 1/1/4 3/3/4 77/88/4 75/86/4
f 40/51/5 41/52/5 58/69/5 55/66/5
f 7/9/1 35/44/1 73/84/1 15/19/1 16/21/1
f 5/5/3 12/16/3 23/32/3 17/22/3
f 5/5/3 7/8/3 10/14/3 14/18/3 12/16/3
f 73/84/6 71/82/6 11/15/6 13/17/6 9/13/6
f 10/14/3 7/8/3 16/20/3 20/27/3
f 18/23/7 17/22/7 23/32/7 24/33/7
f 21/28/8 22/29/8 20/25/8 19/24/8
f 16/21/9 15/19/9 19/24/9 20/26/9
f 24/33/10 23/31/10 22/29/10 21/28/10
f 13/17/11 11/15/11 27/36/11 25/34/11
f 71/82/12 38/49/12 5/5/12 17/22/12 18/23/12
f 18/23/7 24/33/7 32/41/7 33/42/7
f 12/16/3 14/18/3 22/30/3 23/32/3
f 14/18/3 10/14/3 20/27/3 22/30/3
f 9/13/13 13/17/13 25/34/13 26/35/13
f 26/35/6 25/34/6 30/39/6 31/40/6
f 25/34/6 27/36/6 32/41/6 30/39/6
f 27/36/6 28/37/6 33/42/6 32/41/6
f 29/38/6 26/35/6 31/40/6 34/43/6
f 11/15/14 71/82/14 28/37/14 27/36/14
f 71/82/12 18/23/12 33/42/12 28/37/12
f 19/24/9 15/19/9 34/43/9 31/40/9
f 73/84/15 9/13/15 26/35/15 29/38/15
f 21/28/8 19/24/8 31/40/8 30/39/8
f 24/33/10 21/28/10 30/39/10 32/41/10
f 51/62/6 52/63/6 67/78/6 68/79/6
f 46/57/16 43/54/16 60/71/16 61/72/16
f 36/46/17 35/44/17 40/51/17 39/50/17
f 35/44/17 7/9/17 41/52/17 40/51/17
f 7/9/17 8/12/17 42/53/17 41/52/17
f 8/12/17 36/46/17 39/50/17 42/53/17
f 37/48/18 38/49/18 44/55/18 43/54/18
f 38/49/18 71/82/18 45/56/18 44/55/18
f 71/82/18 72/83/18 46/57/18 45/56/18
f 72/83/18 37/48/18 43/54/18 46/57/18
f 74/85/17 73/84/17 48/59/17 47/58/17
f 73/84/17 35/44/17 49/60/17 48/59/17
f 35/44/17 36/46/17 50/61/17 49/60/17
f 36/46/17 74/85/17 47/58/17 50/61/17
f 6/7/18 5/5/18 52/63/18 51/62/18
f 5/5/18 38/49/18 53/64/18 52/63/18
f 38/49/18 37/48/18 54/65/18 53/64/18
f 37/48/18 6/7/18 51/62/18 54/65/18
f 56/67/17 55/66/17 58/69/17 57/68/17
f 60/71/18 59/70/18 62/73/18 61/72/18
f 64/75/17 63/74/17 66/77/17 65/76/17
f 68/79/18 67/78/18 70/81/18 69/80/18
f 44/55/19 45/56/19 62/73/19 59/70/19
f 54/65/16 51/62/16 68/79/16 69/80/16
f 41/52/6 42/53/6 57/68/6 58/69/6
f 48/59/5 49/60/5 66/77/5 63/74/5
f 45/56/3 46/57/3 61/72/3 62/73/3
f 52/63/19 53/64/19 70/81/19 67/78/19
f 49/60/6 50/61/6 65/76/6 66/77/6
f 53/64/3 54/65/3 69/80/3 70/81/3
f 39/50/3 40/51/3 55/66/3 56/67/3
f 43/54/6 44/55/6 59/70/6 60/71/6
f 42/53/2 39/50/2 56/67/2 57/68/2
f 47/58/3 48/59/3 63/74/3 64/75/3
f 1/1/6 2/2/6 72/83/6 71/82/6
f 4/4/6 3/3/6 73/84/6 74/85/6
f 3/3/6 1/1/6 71/82/6 73/84/6
f 2/2/6 4/4/6 74/85/6 72/83/6
f 76/87/6 75/86/6 77/88/6 78/89/6
f 2/2/17 1/1/17 75/86/17 76/87/17
f 4/4/20 2/2/20 76/87/20 78/89/20
f 3/3/18 4/4/18 78/89/18 77/88/18
